<svg version="1.2" xmlns="http://www.w3.org/2000/svg" viewBox="0 0 480 480" width="480" height="480">
	<style>
		.s0 { fill: #ff8c42 } 
		.s1 { fill: #000000 } 
	</style>
	<path fill-rule="evenodd" class="s0" d="m106.02 0.75h267.96c58.14 0 105.27 47.13 105.27 105.27v267.96c0 58.14-47.13 105.27-105.27 105.27h-267.96c-58.14 0-105.27-47.13-105.27-105.27v-267.96c0-58.14 47.13-105.27 105.27-105.27z"/>
	<path id="ze_" class="s1" d="m39.46 182.58v-18.16h107.9v20.79l-85.53 99.22h85.53v18.16h-111.06v-20.79l85.53-99.22zm262.13 45.27v11.05h-104.22q1.32 23.42 13.95 35.79 12.63 12.11 35.26 12.11 13.16 0 25.27-3.16 12.37-3.16 24.47-9.47v21.31q-12.1 5.27-25 7.9-12.89 2.89-26.05 2.89-33.16 0-52.37-19.47-19.22-19.21-19.22-51.85 0-33.95 18.16-53.95 18.43-20 49.48-20 27.9 0 43.95 18.16 16.32 17.89 16.32 48.69zm-103.69-6.58h81.05q-0.26-18.69-10.52-29.74-10-11.32-26.85-11.32-18.95 0-30.52 10.79-11.32 10.79-13.16 30.27zm114.48 123.16h131.32v17.64h-131.32z"/>
</svg>